<?xml version="1.0" standalone="no"?>
<!DOCTYPE svg PUBLIC "-//W3C//DTD SVG 20010904//EN"
 "http://www.w3.org/TR/2001/REC-SVG-20010904/DTD/svg10.dtd">
<svg version="1.0" xmlns="http://www.w3.org/2000/svg"
 width="512.000000pt" height="512.000000pt" viewBox="0 0 512.000000 512.000000"
 preserveAspectRatio="xMidYMid meet">
<metadata>
Created by potrace 1.14, written by Peter Selinger 2001-2017
</metadata>
<g transform="translate(0.000000,512.000000) scale(0.100000,-0.100000)"
fill="#000000" stroke="none">
<path d="M213 5106 c-88 -28 -172 -114 -199 -203 -21 -69 -21 -4627 0 -4696
19 -63 67 -126 127 -167 l52 -35 2372 0 2373 0 53 37 c30 21 70 61 89 89 l35
52 0 2372 0 2373 -38 55 c-42 60 -108 109 -172 126 -64 17 -4636 14 -4692 -3z
m2310 -1892 c450 -530 823 -964 828 -964 5 0 9 271 9 680 l0 680 -235 0 -235
0 0 285 0 285 725 0 725 0 0 -285 0 -285 -175 0 -175 0 0 -1340 0 -1340 -113
0 c-63 0 -147 -3 -188 -6 l-74 -7 -874 1034 c-480 569 -877 1036 -882 1037 -5
2 -9 -304 -9 -742 l0 -746 225 0 225 0 0 -285 0 -285 -715 0 -715 0 0 285 0
285 175 0 175 0 0 1055 0 1055 -205 0 -205 0 0 285 0 285 448 -1 447 0 818
-965z"/>
</g>
</svg>
