<svg xmlns="http://www.w3.org/2000/svg" viewBox="0 0 506 506"><g fill="#e8e3e3"><path d="M373 456h37.6c3.6 0 3.2-6 3.2-9.6V47.6c0-3.6.4-3.6-3.2-3.6H103.4c-3.6 0-9.6 0-9.6 3.6v33.6L373 456z"/><path d="M419 420h35.6c3.6 0 3.2-10 3.2-13.6V11.6c0-3.6.4-7.6-3.2-7.6H147.4c-3.6 0-9.6 4-9.6 7.6V44L419 420z"/></g><path d="M369.8 493.6c0 3.6-2.8 6.4-6.4 6.4H56.6c-3.6 0-6.4-2.8-6.4-6.4V90.4c0-3.6 2.8-6.4 6.4-6.4h306.8c3.6 0 6.4 2.8 6.4 6.4v403.2z" fill="#f4efef"/><path fill="#aeb1b4" d="M81.8 124h256v80h-256z"/><path fill="#7d8b95" d="M85.8 364h96v96h-96z"/><path d="M257.8 242h-176c-2.4 0-4-1.6-4-4s1.6-4 4-4h176c2.4 0 4 1.6 4 4s-1.6 4-4 4zm0 32h-176c-2.4 0-4-1.6-4-4s1.6-4 4-4h176c2.4 0 4 1.6 4 4s-1.6 4-4 4zm0 32h-176c-2.4 0-4-1.6-4-4s1.6-4 4-4h176c2.4 0 4 1.6 4 4s-1.6 4-4 4zm0 32h-176c-2.4 0-4-1.6-4-4s1.6-4 4-4h176c2.4 0 4 1.6 4 4s-1.6 4-4 4zm80 32h-120c-2.4 0-4-1.6-4-4s1.6-4 4-4h120c2.4 0 4 1.6 4 4s-1.6 4-4 4zm0 32h-120c-2.4 0-4-1.6-4-4s1.6-4 4-4h120c2.4 0 4 1.6 4 4s-1.6 4-4 4zm0 32h-120c-2.4 0-4-1.6-4-4s1.6-4 4-4h120c2.4 0 4 1.6 4 4s-1.6 4-4 4zm0 32h-120c-2.4 0-4-1.6-4-4s1.6-4 4-4h120c2.4 0 4 1.6 4 4s-1.6 4-4 4zm0-224h-52c-2.4 0-4-1.6-4-4s1.6-4 4-4h52c2.4 0 4 1.6 4 4s-1.6 4-4 4zm0 32h-52c-2.4 0-4-1.6-4-4s1.6-4 4-4h52c2.4 0 4 1.6 4 4s-1.6 4-4 4zm0 32h-52c-2.4 0-4-1.6-4-4s1.6-4 4-4h52c2.4 0 4 1.6 4 4s-1.6 4-4 4zm0 32h-52c-2.4 0-4-1.6-4-4s1.6-4 4-4h52c2.4 0 4 1.6 4 4s-1.6 4-4 4z"/><path d="M361.4 506H54.6c-6 0-10.4-4.8-10.4-10.4V92.4c0-6 4.8-10.4 10.4-10.4h306.8c6 0 10.4 4.8 10.4 10.4v402.8c0 6-4.8 10.8-10.4 10.8zM54.2 90c-1.2 0-2.4 1.2-2.4 2.4v402.8c0 1.2 1.2 2.4 2.4 2.4H361c1.2 0 2.4-1.2 2.4-2.4V92.4c0-1.2-1.2-2.4-2.4-2.4H54.2z"/><path d="M335.8 210h-256c-2.4 0-4-1.6-4-4v-80c0-2.4 1.6-4 4-4h256c2.4 0 4 1.6 4 4v80c0 2.4-1.6 4-4 4zm-252-8h248v-72h-248v72zm96 264h-96c-2.4 0-4-1.6-4-4v-96c0-2.4 1.6-4 4-4h96c2.4 0 4 1.6 4 4v96c0 2.4-1.6 4-4 4zm-92-8h88v-88h-88v88z"/><path d="M407.4 462h-37.6c-2.4 0-4-1.6-4-4s1.6-4 4-4h37.6c1.2 0 2.4-1.2 2.4-2.4V48.4c0-1.2-1.2-2.4-2.4-2.4H100.6c-1.2 0-2.4 1.2-2.4 2.4V84c0 2.4-1.6 4-4 4s-4-1.6-4-4V48.4c0-6 4.8-10.4 10.4-10.4h306.8c6 0 10.4 4.8 10.4 10.4v402.8c0 6-4.8 10.8-10.4 10.8z"/><path d="M451.4 424h-37.6c-2.4 0-4-1.6-4-4s1.6-4 4-4h37.6c1.2 0 2.4-1.2 2.4-2.4V10.4c0-1.2-1.2-2.4-2.4-2.4H144.6c-1.2 0-2.4 1.2-2.4 2.4V38c0 2.4-1.6 4-4 4s-4-1.6-4-4V10.4c0-6 4.8-10.4 10.4-10.4h306.8c6 0 10.4 4.8 10.4 10.4v402.8c0 6-4.8 10.8-10.4 10.8z"/></svg>