<svg xmlns="http://www.w3.org/2000/svg" viewBox="0 0 512 512"><path d="M161.357 463.055c0 14.887-12.178 27.067-27.065 27.067H35.141c-14.886 0-27.067-12.179-27.067-27.067V48.945c0-14.887 12.181-27.067 27.067-27.067h99.152c14.886 0 27.065 12.178 27.065 27.067v414.11z" fill="#00a8e1"/><path d="M8.075 74.668h153.288v47.439H8.075zm0 315.232h153.288v47.439H8.075z" fill="#0071ce"/><path d="M84.718 340.769a8.073 8.073 0 01-8.075-8.075V179.307c0-4.461 3.614-8.075 8.075-8.075s8.075 3.614 8.075 8.075v153.388a8.075 8.075 0 01-8.075 8.074zm213.177 122.286c0 14.887-12.178 27.067-27.067 27.067h-82.404c-14.886 0-27.067-12.179-27.067-27.067V161.317c0-14.885 12.181-27.066 27.067-27.066h82.404c14.888 0 27.067 12.181 27.067 27.066v301.738z" fill="#0055b8"/><circle cx="229.624" cy="249.081" r="37.33" fill="#ff9e16"/><path d="M263.909 324.875h-68.565a8.075 8.075 0 01-8.075-8.075 8.073 8.073 0 018.075-8.075h68.565a8.073 8.073 0 018.075 8.075 8.075 8.075 0 01-8.075 8.075zm0 31.079h-68.565a8.073 8.073 0 01-8.075-8.075 8.073 8.073 0 018.075-8.075h68.565a8.073 8.073 0 018.075 8.075 8.074 8.074 0 01-8.075 8.075z" fill="#fff"/><path d="M503.003 437.585c3.844 14.379-4.776 29.293-19.155 33.14l-69.095 18.477c-14.381 3.847-29.296-4.772-33.141-19.152L279.406 87.908c-3.846-14.38 4.774-29.293 19.155-33.139l69.095-18.479c14.381-3.847 29.295 4.772 33.139 19.152l102.208 382.143z" fill="#4bb6aa"/><path d="M414.191 105.523l-121.392 32.463 11.104 41.512 121.39-32.463-11.102-41.512zm18.752 70.113l-121.39 32.462 11.102 41.512 121.391-32.463-11.103-41.511z" fill="#0071ce"/><g fill="#fff"><circle cx="428.413" cy="401.701" r="22.863"/><path d="M385.218 367.355a8.078 8.078 0 01-7.795-5.991 8.074 8.074 0 015.715-9.887L442.51 335.6c4.299-1.154 8.734 1.406 9.887 5.715a8.074 8.074 0 01-5.715 9.887L387.31 367.08c-.698.186-1.4.275-2.092.275z"/></g><path d="M510.804 435.5L408.597 53.357c-4.101-15.344-18.079-26.059-33.989-26.059a34.97 34.97 0 00-9.039 1.192l-69.095 18.479c-9.04 2.417-16.611 8.233-21.318 16.38-4.708 8.144-5.969 17.608-3.552 26.647l10.143 37.927a35.005 35.005 0 00-10.921-1.745h-82.404a34.933 34.933 0 00-18.992 5.597v-82.83c0-19.377-15.764-35.142-35.14-35.142H35.14C15.765 13.805 0 29.568 0 48.945v414.109c0 19.377 15.765 35.142 35.142 35.142h99.152c10.877 0 20.614-4.968 27.065-12.754 6.452 7.785 16.189 12.754 27.067 12.754h82.404c19.377 0 35.142-15.765 35.142-35.142V218.482l67.841 253.655c4.102 15.343 18.081 26.058 33.99 26.058 3.043 0 6.084-.401 9.039-1.191l69.096-18.477c18.714-5.008 29.869-24.309 24.866-43.027zm-357.522 27.555c0 10.472-8.519 18.992-18.989 18.992H35.141c-10.471-.001-18.991-8.521-18.991-18.992v-17.647h137.132v17.647zm0-33.797H16.15v-31.285h137.132v31.285zm0-47.435H16.15V130.178h137.132v251.645zm0-267.795H16.15V82.743h137.132v31.285zm0-47.436H16.15V48.945c0-10.472 8.52-18.992 18.992-18.992h99.152c10.471 0 18.989 8.52 18.989 18.992v17.647h-.001zM289.82 463.055c0 10.472-8.52 18.992-18.992 18.992h-82.404c-10.472 0-18.992-8.52-18.992-18.992V161.317c0-10.472 8.52-18.991 18.992-18.991h82.404c10.472 0 18.992 8.519 18.992 18.991v301.738zm-2.613-377.233c-1.303-4.871-.616-9.983 1.933-14.393 2.55-4.41 6.637-7.556 11.509-8.859l69.096-18.479a18.839 18.839 0 014.866-.643c8.609 0 16.17 5.789 18.387 14.08l11.308 42.281L298.515 128.1l-11.308-42.278zm15.48 57.879l105.79-28.291 6.93 25.909-105.79 28.291-6.93-25.909zm11.102 41.512l105.791-28.291 3.477 13-105.791 28.291-3.477-13zm7.65 28.601l105.79-28.291 6.931 25.908-105.791 28.291-6.93-25.908zm160.322 249.111l-69.096 18.477c-1.592.426-3.23.643-4.866.643-8.609 0-16.172-5.79-18.389-14.08l-56.872-212.641 105.791-28.291 56.872 212.638c2.705 10.115-3.324 20.548-13.44 23.254zM229.626 203.676c-25.036 0-45.404 20.369-45.404 45.405s20.368 45.404 45.404 45.404c25.037 0 45.406-20.368 45.406-45.404s-20.369-45.405-45.406-45.405zm0 74.658c-16.13 0-29.254-13.123-29.254-29.254s13.124-29.255 29.254-29.255c16.131 0 29.256 13.123 29.256 29.255-.001 16.131-13.124 29.254-29.256 29.254z" fill="#1e252b"/></svg>