<svg xmlns="http://www.w3.org/2000/svg" viewBox="0 0 482.204 482.204"><g fill="#010002"><path d="M83.127 344.477c54.602 1.063 101.919 9.228 136.837 23.613a4.866 4.866 0 006.716-4.497l.019-261.017a4.863 4.863 0 00-3.066-4.519L85.019 42.899a4.862 4.862 0 00-6.66 4.519v292.197c0 2.649 2.12 4.81 4.768 4.862z"/><path d="M480.244 89.256a4.866 4.866 0 00-4.297-.759l-49.025 14.657a4.863 4.863 0 00-3.471 4.659v252.151s.218 3.978-3.97 3.978h-7.946c-39.549 0-113.045 4.105-160.93 31.6l-9.504 5.442-9.503-5.442c-47.886-27.494-121.381-31.6-160.93-31.6H60.526c-1.891 0-1.775-2.272-1.775-2.271V107.813a4.863 4.863 0 00-3.47-4.659L6.256 88.497A4.86 4.86 0 000 93.155v305.069c0 1.372.581 2.681 1.597 3.604a4.857 4.857 0 003.741 1.236c14.571-1.429 37.351-3.131 63.124-3.131 56.606 0 102.097 8.266 131.576 23.913 4.331 2.272 29.441 15.803 41.065 15.803 11.624 0 36.733-13.53 41.063-15.803 29.48-15.647 74.971-23.913 131.577-23.913 25.771 0 48.553 1.702 63.123 3.131a4.858 4.858 0 005.338-4.84V93.155a4.865 4.865 0 00-1.96-3.899z"/><path d="M257.679 367.634a4.87 4.87 0 004.559.456c34.917-14.386 82.235-22.551 136.837-23.613a4.864 4.864 0 004.769-4.861V47.418a4.863 4.863 0 00-6.661-4.519L258.569 98.057a4.862 4.862 0 00-3.065 4.519l.019 261.017a4.856 4.856 0 002.156 4.041z"/></g></svg>