<svg xmlns="http://www.w3.org/2000/svg" viewBox="0 0 511.999 511.999"><path d="M119.459 318.482c0-78.374 82.721-141.909 184.764-141.909 28.277 0 55.063 4.885 79.023 13.607-2.307-76.833-84.118-138.573-184.709-138.573-102.041 0-184.764 63.535-184.764 141.908 0 56.657 43.234 105.551 105.741 128.303a112.297 112.297 0 01-.055-3.336z" fill="#f4b2b0"/><g fill="#b3404a"><path d="M510.996 455.229l-27.892-69.013c12.884-20.984 19.656-44.254 19.656-67.736 0-24.601-7.066-48.121-20.999-69.908-4.102-6.407-12.618-8.282-19.025-4.182-6.409 4.099-8.282 12.616-4.183 19.025 11.054 17.283 16.66 35.811 16.66 55.066 0 20.551-6.362 40.211-18.911 58.433a13.773 13.773 0 00-1.426 12.973l20.679 51.167-69.627-15.983a13.789 13.789 0 00-9.099 1.034c-27.624 13.418-59.645 20.511-92.605 20.511-94.285 0-170.99-57.482-170.99-128.136 0-5.52.468-10.959 1.376-16.297 10.717-62.988 82.696-111.838 169.614-111.838 26.021 0 51.023 4.299 74.311 12.776a14.23 14.23 0 004.777.831c7.59-.021 13.736-6.179 13.736-13.773 0-.456-.022-.906-.065-1.351-1.543-41.113-23.161-79.351-60.959-107.758-37.097-27.883-85.924-43.237-137.485-43.237-52.369 0-101.748 15.773-139.038 44.415C21.131 111.715 0 151.231 0 193.514c0 30.67 11.294 60.315 32.662 85.729 18.569 22.088 43.931 40.014 73.708 52.23 3.874 37.338 24.406 71.849 58.816 98.277 37.29 28.64 86.669 44.415 139.038 44.415 35.36 0 69.884-7.311 100.186-21.178l90.735 20.829a13.774 13.774 0 0015.851-18.587zM27.547 193.514c0-70.654 76.705-128.136 170.99-128.136 45.631 0 88.58 13.393 120.937 37.711 24.861 18.685 41.182 42.164 47.318 67.564-20.065-5.219-41.027-7.854-62.569-7.854-52.369 0-101.748 15.773-139.038 44.415a191.862 191.862 0 00-3.326 2.618c-.359.289-.711.583-1.067.875-.731.598-1.459 1.196-2.176 1.8-.413.348-.821.7-1.23 1.051a176.57 176.57 0 00-3.186 2.799c-.621.559-1.237 1.123-1.847 1.689a143.984 143.984 0 00-3.066 2.913c-.361.351-.726.701-1.083 1.054a167.1 167.1 0 00-2.136 2.161c-.234.241-.474.478-.707.72-.923.96-1.83 1.928-2.724 2.902-.262.286-.515.576-.774.862-.632.701-1.262 1.402-1.879 2.11-.332.382-.657.766-.985 1.15a138.27 138.27 0 00-1.578 1.872c-.343.413-.68.829-1.018 1.245a168.485 168.485 0 00-2.455 3.106c-.483.629-.96 1.262-1.432 1.897-.303.408-.609.815-.908 1.224-.51.7-1.008 1.405-1.504 2.11-.244.348-.494.693-.736 1.043a145.062 145.062 0 00-2.121 3.158c-.109.167-.211.335-.318.501-.583.902-1.157 1.808-1.716 2.72-.238.387-.467.777-.7 1.165-.42.698-.837 1.397-1.244 2.1-.253.438-.5.879-.748 1.318a128.26 128.26 0 00-2.874 5.374c-.227.449-.456.898-.678 1.348-.353.715-.693 1.432-1.032 2.153-.191.408-.388.815-.576 1.224-.415.905-.814 1.813-1.208 2.724-.098.226-.201.45-.298.676a128.45 128.45 0 00-1.392 3.413c-.138.35-.264.702-.399 1.054-.307.802-.61 1.605-.899 2.412-.16.442-.311.887-.466 1.332-.252.724-.499 1.449-.738 2.176-.153.468-.302.937-.449 1.406a126.692 126.692 0 00-1.067 3.564c-.209.741-.409 1.483-.605 2.227-.117.445-.237.89-.35 1.336-.212.846-.412 1.693-.607 2.541-.079.344-.165.689-.241 1.034-.263 1.193-.511 2.39-.74 3.591-.043.222-.077.445-.118.667-.182.983-.355 1.967-.514 2.954-.067.419-.125.84-.189 1.26-.085.573-.179 1.143-.258 1.718-48.712-23.39-79.276-64.342-79.276-108.047z"/><path d="M395.118 291.222h-180.43c-7.606 0-13.773-6.166-13.773-13.773s6.168-13.773 13.773-13.773h180.431c7.606 0 13.773 6.166 13.773 13.773s-6.167 13.773-13.774 13.773zm0 77.717h-180.43c-7.606 0-13.773-6.166-13.773-13.773s6.168-13.773 13.773-13.773h180.431c7.606 0 13.773 6.166 13.773 13.773 0 7.607-6.167 13.773-13.774 13.773z"/></g></svg>