<svg xmlns="http://www.w3.org/2000/svg" viewBox="0 0 512.256 512.256"><path d="M505.885 337.001c-6.513-6.513-11.672-13.908-15.628-22.083-7.715-15.942-10.273-33.007-9.73-47.561 20.811-26.105 31.607-54.246 31.607-85.939 0-88.441-84.11-149.333-192-149.333-91.631 0-167.02 44.194-186.79 113.094C55.182 163.011.123 216.525.123 288.077c0 31.711 10.796 59.857 31.607 85.943.542 14.553-2.016 31.616-9.73 47.556-3.956 8.175-9.116 15.57-15.628 22.083-15.894 15.894.427 42.389 21.772 35.343 10.156-3.353 27.536-10.064 50.455-19.339l3.621-1.468a4313.664 4313.664 0 0037.472-15.444c5.119-2.136 9.449-3.952 12.747-5.34h59.685c89.492 0 162.617-41.897 184.957-106.658h2.738c3.298 1.388 7.628 3.204 12.747 5.34a4282.468 4282.468 0 0041.093 16.912c22.919 9.275 40.299 15.987 50.455 19.339 21.343 7.046 37.665-19.449 21.771-35.343zm-313.762 57.743h-64a21.33 21.33 0 00-8.313 1.686 3796.374 3796.374 0 01-16.55 6.944 4342.305 4342.305 0 01-34.228 14.123c5.005-17.612 6.207-34.916 5.032-50.441a73.64 73.64 0 00-.434-4.321 21.331 21.331 0 00-4.974-11.018c-17.475-20.277-25.867-40.512-25.867-63.641 0-51.349 43.84-91.452 108.987-103.17a21.934 21.934 0 002.81-.285c12.565-2.115 25.042-3.203 37.548-3.203 46.083 0 85.348 12.787 112.033 33.974 23.541 18.695 37.29 43.927 37.29 72.685 0 .845-.017 1.686-.04 2.525-.164 4.558-.764 9.338-1.816 14.733a21.618 21.618 0 00-.289 2.024c-11.661 51.333-69.811 87.385-147.189 87.385zm251.471-149.676a21.337 21.337 0 00-4.968 11.01c-.132.957-.289 2.413-.434 4.321-1.175 15.525.027 32.829 5.032 50.441a4342.305 4342.305 0 01-34.228-14.123 3929.312 3929.312 0 01-16.55-6.944 21.33 21.33 0 00-8.313-1.686c0-42.842-19.737-79.219-52.352-105.342-34.716-27.81-84.025-44-139.658-44-3.414 0-6.803.062-10.168.183 21.669-38.669 73.586-64.174 138.178-64.174 86.748 0 149.333 45.31 149.333 106.667.001 23.107-8.392 43.344-25.872 63.647z"/><path d="M128.123 266.744h85.333c11.782 0 21.333-9.551 21.333-21.333 0-11.782-9.551-21.333-21.333-21.333h-85.333c-11.782 0-21.333 9.551-21.333 21.333-.001 11.782 9.551 21.333 21.333 21.333zm128 42.667h-128c-11.782 0-21.333 9.551-21.333 21.333 0 11.782 9.551 21.333 21.333 21.333h128c11.782 0 21.333-9.551 21.333-21.333 0-11.782-9.551-21.333-21.333-21.333z"/></svg>