<svg xmlns="http://www.w3.org/2000/svg" viewBox="0 0 95.4 16.5"><path d="M17.6 2.85h-1.75v13.4l-1.88.02L5.25 5.95h-.1v7.45H7.4v2.85H.27V13.4h1.75V2.85H0V0h4.42l8.2 9.65h.1v-6.8h-2.35V0h7.23v2.85zm12.63 7.77c0 1.78-.58 3.21-1.75 4.27-1.17 1.07-2.65 1.6-4.45 1.6s-3.15-.5-4.24-1.51c-1.09-1.01-1.64-2.42-1.64-4.24 0-1.65.5-3.07 1.5-4.25 1-1.18 2.52-1.77 4.55-1.77s3.55.59 4.54 1.76c.99 1.18 1.49 2.55 1.49 4.14zm-3.33-.1c0-1.15-.27-1.99-.8-2.52s-1.18-.8-1.95-.8c-.83 0-1.49.3-1.96.89-.48.59-.71 1.42-.71 2.49 0 .97.22 1.78.66 2.45.44.67 1.1 1 1.99 1 .83 0 1.5-.31 2.01-.94s.76-1.48.76-2.56zm18.25.9c0 1.3-.44 2.43-1.31 3.39-.88.96-2.25 1.44-4.11 1.44h-8.55V13.4h1.75V2.85h-1.75V0h8.45c1.48 0 2.68.35 3.59 1.04.91.69 1.36 1.61 1.36 2.76 0 .85-.26 1.59-.77 2.23-.52.63-1.24 1.02-2.18 1.18v.1c1.17.17 2.05.62 2.64 1.38.59.75.89 1.67.89 2.75zm-4.18-6.75c0-.73-.22-1.22-.66-1.46-.44-.24-.96-.36-1.56-.36h-2.47v3.8h2.22c.95 0 1.6-.19 1.95-.57s.52-.85.52-1.4zm.58 6.62c0-1.37-.83-2.05-2.48-2.05h-2.8v4.15h2.57c1.8 0 2.7-.7 2.7-2.1zm16.77-.67c0 1.78-.58 3.21-1.75 4.27-1.17 1.07-2.65 1.6-4.45 1.6s-3.15-.5-4.24-1.51c-1.09-1.01-1.64-2.42-1.64-4.24 0-1.65.5-3.07 1.5-4.25 1-1.18 2.52-1.77 4.55-1.77s3.55.59 4.54 1.76c.99 1.18 1.49 2.55 1.49 4.14zm-3.33-.1c0-1.15-.27-1.99-.8-2.52s-1.18-.8-1.95-.8c-.83 0-1.49.3-1.96.89-.48.59-.71 1.42-.71 2.49 0 .97.22 1.78.66 2.45.44.67 1.1 1 1.99 1 .83 0 1.5-.31 2.01-.94s.76-1.48.76-2.56zm16.41.1c0 1.78-.58 3.21-1.75 4.27-1.17 1.07-2.65 1.6-4.45 1.6s-3.15-.5-4.24-1.51c-1.09-1.01-1.64-2.42-1.64-4.24 0-1.65.5-3.07 1.5-4.25 1-1.18 2.52-1.77 4.55-1.77s3.55.59 4.54 1.76c.99 1.18 1.49 2.55 1.49 4.14zm-3.33-.1c0-1.15-.27-1.99-.8-2.52s-1.18-.8-1.95-.8c-.83 0-1.49.3-1.96.89-.48.59-.71 1.42-.71 2.49 0 .97.22 1.78.66 2.45.44.67 1.1 1 1.99 1 .83 0 1.5-.31 2.01-.94s.76-1.48.76-2.56zm14.58 5.73H72.8l-.32-1.7 6.05-7.15h-3.38l-.5 1.73-2.33-.2.4-3.95h9.9l.25 1.7-6.23 7.15h3.62l.52-1.78 2.55.25-.7 3.95zM95.4 12.7c-.08 1-.58 1.88-1.48 2.65s-2.16 1.15-3.77 1.15-3.07-.48-4.16-1.42c-1.09-.95-1.64-2.37-1.64-4.25 0-1.73.5-3.18 1.49-4.34.99-1.16 2.38-1.74 4.16-1.74 1.57 0 2.84.45 3.81 1.35.98.9 1.47 2.08 1.49 3.55 0 .55-.06 1.09-.18 1.62h-7.4c.18 1.78 1.07 2.68 2.65 2.68.87 0 1.45-.21 1.76-.62.31-.42.5-.79.56-1.12l2.7.5zm-3.43-3.3c.07-.57-.05-1.1-.36-1.6s-.85-.75-1.61-.75c-.67 0-1.18.22-1.55.65-.37.43-.6 1-.7 1.7h4.23z" fill="#2e487f"/></svg>