<svg xmlns="http://www.w3.org/2000/svg" viewBox="0 0 52.63 17.83"><path d="M0 17.64V0h2.42l2.4 9.19.22.82h.14V0h2.38v17.64H5.38L2.74 8.45l-.22-.82h-.14v10.01H0zm12.11.17c-.97 0-1.73-.33-2.28-.98-.55-.65-.83-1.48-.83-2.48V7.78c0-1 .28-1.83.83-2.48.55-.65 1.31-.98 2.28-.98s1.72.33 2.27.98c.56.65.83 1.48.83 2.48v6.58c0 1-.28 1.83-.83 2.48-.56.65-1.31.98-2.27.98zm0-2.11c.31 0 .53-.13.65-.38s.18-.57.18-.97V7.78c0-.4-.06-.72-.18-.97s-.34-.37-.65-.37-.53.12-.65.37-.18.57-.18.97v6.58c0 .4.06.72.18.97s.34.37.65.37zm4.55 1.94V0h2.64c.9 0 1.67.16 2.32.47s1.16.81 1.51 1.48.53 1.54.53 2.6c0 .85-.11 1.59-.33 2.22-.22.63-.65 1.15-1.28 1.55.64.35 1.1.91 1.38 1.67.28.76.42 1.65.42 2.65s-.16 1.85-.47 2.6c-.32.75-.78 1.34-1.39 1.76s-1.37.63-2.26.63h-3.07zm2.59-10.37c.73 0 1.23-.2 1.51-.6.28-.4.41-.99.41-1.78s-.14-1.38-.43-1.76-.78-.57-1.49-.57v4.71zm0 7.8c.78 0 1.3-.23 1.55-.7s.37-1.14.37-2.01-.12-1.56-.37-2.02c-.25-.46-.76-.69-1.55-.69v5.42zm8.77 2.74c-.97 0-1.73-.33-2.28-.98-.55-.65-.83-1.48-.83-2.48V7.78c0-1 .28-1.83.83-2.48.55-.65 1.31-.98 2.28-.98s1.72.33 2.27.98c.56.65.83 1.48.83 2.48v6.58c0 1-.28 1.83-.83 2.48-.56.65-1.31.98-2.27.98zm0-2.11c.31 0 .53-.13.65-.38s.18-.57.18-.97V7.78c0-.4-.06-.72-.18-.97s-.34-.37-.65-.37-.53.12-.65.37-.18.57-.18.97v6.58c0 .4.06.72.18.97s.34.37.65.37zm7.18 2.11c-.97 0-1.73-.33-2.28-.98-.55-.65-.83-1.48-.83-2.48V7.78c0-1 .28-1.83.83-2.48.55-.65 1.31-.98 2.28-.98s1.72.33 2.27.98c.56.65.83 1.48.83 2.48v6.58c0 1-.28 1.83-.83 2.48-.56.65-1.31.98-2.27.98zm0-2.11c.31 0 .53-.13.65-.38s.18-.57.18-.97V7.78c0-.4-.06-.72-.18-.97s-.34-.37-.65-.37-.53.12-.65.37-.18.57-.18.97v6.58c0 .4.06.72.18.97s.34.37.65.37zm4.18 1.94v-1.97l3.34-8.95h-2.81V4.51h5.38v1.97l-3.34 8.95h3.34v2.21h-5.9zm10.11.19c-.97 0-1.73-.33-2.29-1s-.83-1.49-.83-2.45v-6.6c0-1.02.28-1.86.83-2.5.55-.64 1.32-.96 2.32-.96.65 0 1.21.15 1.67.44.47.3.83.7 1.07 1.21s.37 1.09.37 1.73v3.82h-4.01v2.86c0 .33.07.63.22.91s.37.41.67.41c.31 0 .53-.13.67-.38.13-.26.2-.57.2-.94v-1.44h2.26v1.51c0 1.02-.27 1.83-.82 2.45-.55.62-1.32.93-2.32.93zm-.86-8.21h1.75V7.77c0-.36-.06-.67-.19-.94-.12-.27-.35-.4-.68-.4-.3 0-.53.14-.67.41s-.22.59-.22.93v1.85z" fill="#2e487e"/></svg>