<svg class="u-header__svg" xmlns="http://www.w3.org/2000/svg" viewBox="-228.2 -1248.2 5016.057 1928.4"><g fill="#e4473e"><path d="M4444.457-581.66c0-28.157-1.34-56.315-5.363-83.131-266.823-50.951-272.186 50.951-533.646-1.34-2.682 28.156-5.364 56.314-5.364 84.47 0 143.469 122.015 301.685 272.187 301.685s272.186-159.557 272.186-301.684z"/><path d="M4341.214 259.034c-40.224-10.727-92.516-16.09-147.49-17.43-1.34-6.705-1.34-13.409-1.34-22.795 0-44.247 5.362-411.631 6.703-463.923 71.064-8.045 138.105-44.247 191.737-103.243 57.656-64.36 89.835-146.15 89.835-226.599 0-156.876-56.314-321.797-56.314-323.138-1.34-10.726-14.749-22.794-79.108-32.18C4298.307-936.976 4236.63-941 4170.93-941s-127.378 4.023-174.307 10.727c-64.359 9.385-77.767 22.794-79.108 32.18 0 1.34-56.314 166.261-56.314 323.137 0 79.108 33.52 162.24 89.835 226.599 53.632 60.336 120.673 96.539 191.737 103.243 1.34 50.95 6.704 419.676 6.704 463.923 0 8.045 0 16.09-1.34 22.794-54.975 1.341-107.267 6.704-147.491 16.09-44.247 10.727-67.041 26.817-68.382 40.225v18.771c0 17.43 24.135 30.84 73.745 41.566 44.247 9.385 101.902 14.749 163.58 14.749s120.674-5.364 163.58-13.408c49.61-9.386 73.745-22.794 73.745-40.225 0 0 1.341-16.09 1.341-17.43 1.341-17.431-21.453-32.18-67.04-42.907zM4008.691-914.183c44.247-6.705 103.243-9.386 163.58-9.386 60.337 0 119.333 4.022 163.58 9.386 52.292 6.704 67.04 16.09 69.723 18.771-4.023 2.682-18.772 10.727-69.723 18.771-45.588 6.705-103.243 9.386-163.58 9.386s-119.333-2.681-163.58-9.386c-52.292-6.704-67.041-16.09-69.723-18.771 2.682-2.682 17.43-10.727 69.723-18.771zm-44.247 553.758c-54.974-61.678-85.813-139.445-85.813-214.531 0-127.378 37.543-261.46 50.951-303.025 10.727 6.704 30.84 13.408 67.041 18.771 46.93 6.704 108.607 10.727 174.307 10.727s127.378-4.023 174.307-10.727c37.543-5.363 56.314-12.067 67.04-18.771 13.409 42.906 50.952 175.647 50.952 303.025 0 75.086-30.84 154.194-85.813 214.531-57.655 64.36-130.06 99.22-206.486 99.22-75.086 0-148.831-34.86-206.486-99.22zm368.725 703.93c-42.906 8.046-100.561 13.409-160.898 13.409s-117.992-5.363-160.899-13.408c-28.157-5.364-44.247-12.068-52.292-17.431 12.068 5.363 28.158 9.386 50.952 13.408 41.565 6.704 100.561 10.727 163.58 10.727 64.359 0 122.014-4.023 163.58-10.727 21.453-4.022 38.883-8.045 50.95-13.408-10.726 5.363-26.816 12.067-54.973 17.43zm-160.898-9.385c-168.943 0-221.235-24.135-221.235-33.52 0-5.364 14.749-17.431 56.314-26.817 38.884-9.386 87.153-16.09 139.445-17.43-4.022 16.09-10.726 24.134-10.726 24.134v2.682h18.771c5.363-13.408 13.408-33.52 13.408-63.019 0-44.247-5.363-407.609-6.704-463.923h21.453c-1.34 57.655-6.704 421.017-6.704 465.264 0 30.839 6.704 49.61 13.409 63.019h18.771v-2.682s-6.704-8.045-10.727-24.135c52.292 1.341 101.903 6.704 139.446 16.09 41.565 10.727 56.314 21.453 56.314 26.816 0 9.386-52.292 33.52-221.235 33.52z"/></g><path d="M541-576q15 0 26 11t11 27v489q0 22-16 38-16 15-38 15h-10q-27 0-43-22L154-476v443q0 15-11 26T116 4Q101 4 90-7T79-33v-489q0-22 15-38 16-16 39-16h10q26 0 46 25L504-96v-442q0-15 11-26 11-12 26-12zm365 150q95 0 153 60 58 61 56 157 0 97-56 157-58 60-153 60-96 0-152-60-58-60-58-157 0-98 58-157 56-60 152-60zM814-93q20 17 44 25 25 8 48 8t47-8q24-8 44-26 44-40 44-116 0-74-44-115-37-34-91-33-89 0-123 80-12 29-12 69t12 69q12 29 31 47zm833-330q0 89-80 125 78 26 103 87 9 23 9 55 0 31-12 61-11 29-36 51-53 44-163 44h-198q-15 0-26-11t-11-26v-497q0-15 11-26 11-12 26-12h194q90 0 136 42 47 41 47 107zm-71 5q0-38-31-61-30-23-87-23h-150v177h136q106 0 126-56 6-17 6-37zM1308-70h153q116 0 139-56 7-18 7-38 0-49-37-71-37-23-108-23h-154v188zm662-356q95 0 153 60 58 61 56 157 0 97-56 157-58 60-153 60-96 0-152-60-58-60-58-157 0-98 58-157 56-60 152-60zm-92 333q20 17 44 25 25 8 48 8t47-8q24-8 44-26 44-40 44-116 0-74-44-115-37-34-91-33-89 0-123 80-12 29-12 69t12 69q12 29 31 47zm589-333q95 0 153 60 58 61 56 157 0 97-56 157-58 60-153 60-96 0-152-60-58-60-58-157 0-98 58-157 56-60 152-60zm-92 333q20 17 44 25 25 8 48 8t47-8q24-8 44-26 44-40 44-116 0-74-44-115-37-34-91-33-89 0-123 80-12 29-12 69t12 69q12 29 31 47zm714 59q0 14-10 24t-25 10h-256q-22 0-37-11-14-11-14-31t13-35l236-271h-207q-14 0-25-10-10-10-10-24t10-25q10-11 25-11h248q22 0 35 13t13 33q0 20-12 34L2844-70h210q14 0 24 11 11 11 11 25zm149-148q7 55 42 88 36 32 98 32 63 0 107-20 14-7 25-7 11-1 20 8 10 9 10 20 0 22-18 31-17 9-31 16t-30 12q-37 10-86 10-101 0-157-56-55-57-55-161 0-90 47-150 53-67 149-67 92 0 145 62 50 58 50 145 0 15-11 26-10 11-26 11h-279zm121-181q-73 0-106 65-12 23-15 55h242q-3-58-43-92-32-28-78-28z" fill="#1a283f"/></svg>