<svg xmlns="http://www.w3.org/2000/svg" viewBox="0 0 512.003 512.003" style="enable-background:new 0 0 512.003 512.003" xml:space="preserve"><path d="M192.002 138.664c-111.253 0-192 62.805-192 149.333 0 31.104 10.325 59.264 31.552 85.888.363 12.907-1.365 45.76-25.301 69.696a21.335 21.335 0 0 0-3.093 26.261 21.348 21.348 0 0 0 18.176 10.155c2.219 0 4.48-.341 6.677-1.067 23.872-7.872 87.531-34.517 104.299-41.6h59.691c111.253 0 192-62.805 192-149.333s-80.748-149.333-192.001-149.333zm-64 85.333h85.333c11.776 0 21.333 9.557 21.333 21.333 0 11.776-9.557 21.333-21.333 21.333h-85.333c-11.776 0-21.333-9.557-21.333-21.333-.001-11.775 9.557-21.333 21.333-21.333zm128 128h-128c-11.776 0-21.333-9.557-21.333-21.333s9.557-21.333 21.333-21.333h128c11.776 0 21.333 9.557 21.333 21.333s-9.557 21.333-21.333 21.333z"/><path d="M480.439 267.227c21.227-26.645 31.552-54.805 31.552-85.888 0-86.549-80.747-149.333-192-149.333-69.056 0-127.765 25.28-161.408 65.877 10.88-1.109 21.973-1.877 33.408-1.877 136 0 234.667 80.747 234.667 192 0 20.523-3.392 40-9.728 58.133 24.235 9.963 52.757 21.397 67.051 26.112a20.83 20.83 0 0 0 6.677 1.088c7.253 0 14.229-3.712 18.176-10.155 5.184-8.405 3.904-19.285-3.072-26.261-23.958-23.936-25.686-56.789-25.323-69.696z"/></svg>