<svg class="u-header__svg" version="1.1" xmlns="http://www.w3.org/2000/svg" viewBox="-228.2 -1248.2 5016.0572013121 1928.4"><desc>Created with Snap</desc><defs></defs><g><g transform="matrix(13.4082,0,0,13.4082,3485.7715,-962.4531)"><g><path d="M71.5,28.4c0-2.1-0.1-4.2-0.4-6.2c-19.9-3.8-20.3,3.8-39.8-0.1c-0.2,2.1-0.4,4.2-0.4,6.3c0,10.7,9.1,22.5,20.3,22.5   S71.5,39,71.5,28.4z" fill="#e4473e" style=""></path><path d="M63.8,91.1c-3-0.8-6.9-1.2-11-1.3c-0.1-0.5-0.1-1-0.1-1.7c0-3.3,0.4-30.7,0.5-34.6c5.3-0.6,10.3-3.3,14.3-7.7   c4.3-4.8,6.7-10.9,6.7-16.9c0-11.7-4.2-24-4.2-24.1l0,0c-0.1-0.8-1.1-1.7-5.9-2.4c-3.5-0.5-8.1-0.8-13-0.8s-9.5,0.3-13,0.8   c-4.8,0.7-5.8,1.7-5.9,2.4l0,0c0,0.1-4.2,12.4-4.2,24.1c0,5.9,2.5,12.1,6.7,16.9c4,4.5,9,7.2,14.3,7.7c0.1,3.8,0.5,31.3,0.5,34.6   c0,0.6,0,1.2-0.1,1.7c-4.1,0.1-8,0.5-11,1.2c-3.3,0.8-5,2-5.1,3h0l0,1.4c0,1.3,1.8,2.3,5.5,3.1c3.3,0.7,7.6,1.1,12.2,1.1   c4.6,0,9-0.4,12.2-1c3.7-0.7,5.5-1.7,5.5-3c0,0,0.1-1.2,0.1-1.3C68.9,93,67.2,91.9,63.8,91.1z M39,3.6c3.3-0.5,7.7-0.7,12.2-0.7   c4.5,0,8.9,0.3,12.2,0.7c3.9,0.5,5,1.2,5.2,1.4c-0.3,0.2-1.4,0.8-5.2,1.4C60,6.9,55.7,7.1,51.2,7.1S42.3,6.9,39,6.4   c-3.9-0.5-5-1.2-5.2-1.4C34,4.8,35.1,4.2,39,3.6z M35.7,44.9c-4.1-4.6-6.4-10.4-6.4-16c0-9.5,2.8-19.5,3.8-22.6   c0.8,0.5,2.3,1,5,1.4c3.5,0.5,8.1,0.8,13,0.8c4.9,0,9.5-0.3,13-0.8c2.8-0.4,4.2-0.9,5-1.4c1,3.2,3.8,13.1,3.8,22.6   c0,5.6-2.3,11.5-6.4,16c-4.3,4.8-9.7,7.4-15.4,7.4C45.5,52.3,40,49.7,35.7,44.9z M63.2,97.4c-3.2,0.6-7.5,1-12,1   c-4.5,0-8.8-0.4-12-1c-2.1-0.4-3.3-0.9-3.9-1.3c0.9,0.4,2.1,0.7,3.8,1c3.1,0.5,7.5,0.8,12.2,0.8c4.8,0,9.1-0.3,12.2-0.8   c1.6-0.3,2.9-0.6,3.8-1C66.5,96.5,65.3,97,63.2,97.4z M51.2,96.7c-12.6,0-16.5-1.8-16.5-2.5c0-0.4,1.1-1.3,4.2-2   c2.9-0.7,6.5-1.2,10.4-1.3c-0.3,1.2-0.8,1.8-0.8,1.8l0,0.2h1.4c0.4-1,1-2.5,1-4.7c0-3.3-0.4-30.4-0.5-34.6c0.3,0,0.5,0,0.8,0   c0.3,0,0.5,0,0.8,0c-0.1,4.3-0.5,31.4-0.5,34.7c0,2.3,0.5,3.7,1,4.7h1.4l0-0.2c0,0-0.5-0.6-0.8-1.8c3.9,0.1,7.6,0.5,10.4,1.2   c3.1,0.8,4.2,1.6,4.2,2C67.7,94.9,63.8,96.7,51.2,96.7z" fill="#e4473e" style=""></path></g><desc>Created with Snap</desc><defs></defs></g><g><g transform="matrix(1,0,0,-1,0,0)"><path d="M541 576Q556 576 567 565Q578 554 578 538L578 49Q578 27 562 11Q546 -4 524 -4L514 -4Q487 -4 471 18L154 476L154 33Q154 18 143 7Q132 -4 116 -4Q101 -4 90 7Q79 18 79 33L79 522Q79 544 94 560Q110 576 133 576L143 576Q169 576 189 551L504 96L504 538Q504 553 515 564Q526 576 541 576ZM906 426Q1001 426 1059 366Q1117 305 1115 209Q1115 112 1059 52Q1001 -8 906 -8Q810 -8 754 52Q696 112 696 209Q696 307 754 366Q810 426 906 426ZM814 93Q834 76 858 68Q883 60 906 60Q929 60 953 68Q977 76 997 94Q1041 134 1041 210Q1041 284 997 325Q960 359 906 358Q817 358 783 278Q771 249 771 209Q771 169 783 140Q795 111 814 93ZM1647 423Q1647 334 1567 298Q1645 272 1670 211Q1679 188 1679 156Q1679 125 1667 95Q1656 66 1631 44Q1578 0 1468 0L1270 0Q1255 0 1244 11Q1233 22 1233 37L1233 534Q1233 549 1244 560Q1255 572 1270 572L1464 572Q1554 572 1600 530Q1647 489 1647 423ZM1576 418Q1576 456 1545 479Q1515 502 1458 502L1308 502L1308 325L1444 325Q1550 325 1570 381Q1576 398 1576 418ZM1308 70L1461 70Q1577 70 1600 126Q1607 144 1607 164Q1607 213 1570 235Q1533 258 1462 258L1308 258L1308 70ZM1970 426Q2065 426 2123 366Q2181 305 2179 209Q2179 112 2123 52Q2065 -8 1970 -8Q1874 -8 1818 52Q1760 112 1760 209Q1760 307 1818 366Q1874 426 1970 426ZM1878 93Q1898 76 1922 68Q1947 60 1970 60Q1993 60 2017 68Q2041 76 2061 94Q2105 134 2105 210Q2105 284 2061 325Q2024 359 1970 358Q1881 358 1847 278Q1835 249 1835 209Q1835 169 1847 140Q1859 111 1878 93ZM2467 426Q2562 426 2620 366Q2678 305 2676 209Q2676 112 2620 52Q2562 -8 2467 -8Q2371 -8 2315 52Q2257 112 2257 209Q2257 307 2315 366Q2371 426 2467 426ZM2375 93Q2395 76 2419 68Q2444 60 2467 60Q2490 60 2514 68Q2538 76 2558 94Q2602 134 2602 210Q2602 284 2558 325Q2521 359 2467 358Q2378 358 2344 278Q2332 249 2332 209Q2332 169 2344 140Q2356 111 2375 93ZM3089 34Q3089 20 3079 10Q3069 0 3054 0L2798 0Q2776 0 2761 11Q2747 22 2747 42Q2747 62 2760 77L2996 348L2789 348Q2775 348 2764 358Q2754 368 2754 382Q2754 396 2764 407Q2774 418 2789 418L3037 418Q3059 418 3072 405Q3085 392 3085 372Q3085 352 3073 338L2844 70L3054 70Q3068 70 3078 59Q3089 48 3089 34ZM3238 182Q3245 127 3280 94Q3316 62 3378 62Q3441 62 3485 82Q3499 89 3510 89Q3521 90 3530 81Q3540 72 3540 61Q3540 39 3522 30Q3505 21 3491 14Q3477 7 3461 2Q3424 -8 3375 -8Q3274 -8 3218 48Q3163 105 3163 209Q3163 299 3210 359Q3263 426 3359 426Q3451 426 3504 364Q3554 306 3554 219Q3554 204 3543 193Q3533 182 3517 182L3238 182ZM3359 363Q3286 363 3253 298Q3241 275 3238 243L3480 243Q3477 301 3437 335Q3405 363 3359 363Z" fill="#1a283f" style=""></path></g></g></g></svg>