<?xml version="1.0" encoding="UTF-8"?><svg id="Warstwa_2" xmlns="http://www.w3.org/2000/svg" viewBox="0 0 52.63 17.83"><defs><style>.cls-1{fill:#2e487e;}</style></defs><g id="Warstwa_1-2"><g><path class="cls-1" d="M0,17.64V0H2.42l2.4,9.19,.22,.82h.14V0h2.38V17.64h-2.18L2.74,8.45l-.22-.82h-.14v10.01H0Z"/><path class="cls-1" d="M12.11,17.81c-.97,0-1.73-.33-2.28-.98-.55-.65-.83-1.48-.83-2.48V7.78c0-1,.28-1.83,.83-2.48,.55-.65,1.31-.98,2.28-.98s1.72,.33,2.27,.98c.56,.65,.83,1.48,.83,2.48v6.58c0,1-.28,1.83-.83,2.48-.56,.65-1.31,.98-2.27,.98Zm0-2.11c.31,0,.53-.13,.65-.38,.12-.25,.18-.57,.18-.97V7.78c0-.4-.06-.72-.18-.97-.12-.25-.34-.37-.65-.37s-.53,.12-.65,.37-.18,.57-.18,.97v6.58c0,.4,.06,.72,.18,.97s.34,.37,.65,.37Z"/><path class="cls-1" d="M16.66,17.64V0h2.64c.9,0,1.67,.16,2.32,.47s1.16,.81,1.51,1.48,.53,1.54,.53,2.6c0,.85-.11,1.59-.33,2.22-.22,.63-.65,1.15-1.28,1.55,.64,.35,1.1,.91,1.38,1.67,.28,.76,.42,1.65,.42,2.65s-.16,1.85-.47,2.6c-.32,.75-.78,1.34-1.39,1.76s-1.37,.63-2.26,.63h-3.07Zm2.59-10.37c.73,0,1.23-.2,1.51-.6,.28-.4,.41-.99,.41-1.78s-.14-1.38-.43-1.76-.78-.57-1.49-.57V7.27Zm0,7.8c.78,0,1.3-.23,1.55-.7,.25-.47,.37-1.14,.37-2.01s-.12-1.56-.37-2.02c-.25-.46-.76-.69-1.55-.69v5.42Z"/><path class="cls-1" d="M28.02,17.81c-.97,0-1.73-.33-2.28-.98-.55-.65-.83-1.48-.83-2.48V7.78c0-1,.28-1.83,.83-2.48,.55-.65,1.31-.98,2.28-.98s1.72,.33,2.27,.98c.56,.65,.83,1.48,.83,2.48v6.58c0,1-.28,1.83-.83,2.48-.56,.65-1.31,.98-2.27,.98Zm0-2.11c.31,0,.53-.13,.65-.38,.12-.25,.18-.57,.18-.97V7.78c0-.4-.06-.72-.18-.97-.12-.25-.34-.37-.65-.37s-.53,.12-.65,.37-.18,.57-.18,.97v6.58c0,.4,.06,.72,.18,.97s.34,.37,.65,.37Z"/><path class="cls-1" d="M35.2,17.81c-.97,0-1.73-.33-2.28-.98-.55-.65-.83-1.48-.83-2.48V7.78c0-1,.28-1.83,.83-2.48,.55-.65,1.31-.98,2.28-.98s1.72,.33,2.27,.98c.56,.65,.83,1.48,.83,2.48v6.58c0,1-.28,1.83-.83,2.48-.56,.65-1.31,.98-2.27,.98Zm0-2.11c.31,0,.53-.13,.65-.38,.12-.25,.18-.57,.18-.97V7.78c0-.4-.06-.72-.18-.97-.12-.25-.34-.37-.65-.37s-.53,.12-.65,.37-.18,.57-.18,.97v6.58c0,.4,.06,.72,.18,.97s.34,.37,.65,.37Z"/><path class="cls-1" d="M39.38,17.64v-1.97l3.34-8.95h-2.81v-2.21h5.38v1.97l-3.34,8.95h3.34v2.21h-5.9Z"/><path class="cls-1" d="M49.49,17.83c-.97,0-1.73-.33-2.29-1s-.83-1.49-.83-2.45V7.78c0-1.02,.28-1.86,.83-2.5,.55-.64,1.32-.96,2.32-.96,.65,0,1.21,.15,1.67,.44,.47,.3,.83,.7,1.07,1.21s.37,1.09,.37,1.73v3.82h-4.01v2.86c0,.33,.07,.63,.22,.91s.37,.41,.67,.41c.31,0,.53-.13,.67-.38,.13-.26,.2-.57,.2-.94v-1.44h2.26v1.51c0,1.02-.27,1.83-.82,2.45-.55,.62-1.32,.93-2.32,.93Zm-.86-8.21h1.75v-1.85c0-.36-.06-.67-.19-.94-.12-.27-.35-.4-.68-.4-.3,0-.53,.14-.67,.41s-.22,.59-.22,.93v1.85Z"/></g></g></svg>