<svg xmlns="http://www.w3.org/2000/svg" viewBox="0 0 206.38 100"><defs><style>.cls-1{fill:#fff}</style></defs><ellipse cx="100" cy="50" rx="100" ry="50" style="fill:#0a64bc"/><g><path class="cls-1" d="M52.02 40.1h-2.8v21.44l-3 .04-13.96-16.52h-.16v11.92h3.6v4.56H24.3v-4.56h2.8V40.1h-3.24v-4.56h7.08l13.12 15.44h.16V40.1h-3.76v-4.56h11.56v4.56ZM72.22 52.54c0 2.85-.93 5.13-2.8 6.84-1.87 1.71-4.24 2.56-7.12 2.56s-5.03-.81-6.78-2.42c-1.75-1.61-2.62-3.87-2.62-6.78 0-2.64.8-4.91 2.4-6.8 1.6-1.89 4.03-2.84 7.28-2.84s5.67.94 7.26 2.82c1.59 1.88 2.38 4.09 2.38 6.62Zm-5.32-.16c0-1.84-.43-3.19-1.28-4.04-.85-.85-1.89-1.28-3.12-1.28-1.33 0-2.38.47-3.14 1.42-.76.95-1.14 2.27-1.14 3.98 0 1.55.35 2.85 1.06 3.92.71 1.07 1.77 1.6 3.18 1.6 1.33 0 2.41-.5 3.22-1.5s1.22-2.37 1.22-4.1ZM96.1 53.82c0 2.08-.7 3.89-2.1 5.42-1.4 1.53-3.59 2.3-6.58 2.3H73.74v-4.56h2.8V40.1h-2.8v-4.56h13.52c2.37 0 4.29.55 5.74 1.66 1.45 1.11 2.18 2.58 2.18 4.42 0 1.36-.41 2.55-1.24 3.56-.83 1.01-1.99 1.64-3.48 1.88v.16c1.87.27 3.27 1 4.22 2.2.95 1.2 1.42 2.67 1.42 4.4Zm-6.68-10.8c0-1.17-.35-1.95-1.06-2.34-.71-.39-1.54-.58-2.5-.58H81.9v6.08h3.56c1.52 0 2.56-.31 3.12-.92.56-.61.84-1.36.84-2.24Zm.92 10.6c0-2.19-1.32-3.28-3.96-3.28H81.9v6.64h4.12c2.88 0 4.32-1.12 4.32-3.36ZM117.18 52.54c0 2.85-.93 5.13-2.8 6.84-1.87 1.71-4.24 2.56-7.12 2.56s-5.03-.81-6.78-2.42c-1.75-1.61-2.62-3.87-2.62-6.78 0-2.64.8-4.91 2.4-6.8 1.6-1.89 4.03-2.84 7.28-2.84s5.67.94 7.26 2.82c1.59 1.88 2.38 4.09 2.38 6.62Zm-5.32-.16c0-1.84-.43-3.19-1.28-4.04-.85-.85-1.89-1.28-3.12-1.28-1.33 0-2.38.47-3.14 1.42-.76.95-1.14 2.27-1.14 3.98 0 1.55.35 2.85 1.06 3.92.71 1.07 1.77 1.6 3.18 1.6 1.33 0 2.41-.5 3.22-1.5s1.22-2.37 1.22-4.1ZM138.1 52.54c0 2.85-.93 5.13-2.8 6.84-1.87 1.71-4.24 2.56-7.12 2.56s-5.03-.81-6.78-2.42c-1.75-1.61-2.62-3.87-2.62-6.78 0-2.64.8-4.91 2.4-6.8 1.6-1.89 4.03-2.84 7.28-2.84s5.67.94 7.26 2.82c1.59 1.88 2.38 4.09 2.38 6.62Zm-5.32-.16c0-1.84-.43-3.19-1.28-4.04-.85-.85-1.89-1.28-3.12-1.28-1.33 0-2.38.47-3.14 1.42-.76.95-1.14 2.27-1.14 3.98 0 1.55.35 2.85 1.06 3.92.71 1.07 1.77 1.6 3.18 1.6 1.33 0 2.41-.5 3.22-1.5s1.22-2.37 1.22-4.1ZM156.1 61.54h-15.76l-.52-2.72 9.68-11.44h-5.4l-.8 2.76-3.72-.32.64-6.32h15.84l.4 2.72-9.96 11.44h5.8l.84-2.84 4.08.4-1.12 6.32ZM176.5 55.86c-.13 1.6-.92 3.01-2.36 4.24-1.44 1.23-3.45 1.84-6.04 1.84s-4.91-.76-6.66-2.28c-1.75-1.52-2.62-3.79-2.62-6.8 0-2.77.79-5.09 2.38-6.94 1.59-1.85 3.81-2.78 6.66-2.78 2.51 0 4.54.72 6.1 2.16 1.56 1.44 2.35 3.33 2.38 5.68 0 .88-.09 1.75-.28 2.6h-11.84c.29 2.85 1.71 4.28 4.24 4.28 1.39 0 2.33-.33 2.82-1 .49-.67.79-1.27.9-1.8l4.32.8Zm-5.48-5.28c.11-.91-.09-1.76-.58-2.56s-1.35-1.2-2.58-1.2c-1.07 0-1.89.35-2.48 1.04-.59.69-.96 1.6-1.12 2.72h6.76Z"/><text transform="translate(187.77 14.57)" style="font-family:ZillaSlab-Bold,'Zilla Slab';font-size:12px;fill:#0a64bc"><tspan x="0" y="0">TM</tspan></text></g></svg>